<svg xmlns="http://www.w3.org/2000/svg" width="19" height="16" viewBox="0 0 19 16">
  <path style="fill: #28344f; fill-rule: evenodd;" d="M257.7,449.354A2.224,2.224,0,0,0,257,451v8.668a2.224,2.224,0,0,0,.7,1.646,2.3,2.3,0,0,0,1.675.688h0.339V448.666h-0.339A2.3,2.3,0,0,0,257.7,449.354ZM270.571,447a0.954,0.954,0,0,0-.3-0.708,0.986,0.986,0,0,0-.72-0.292h-6.108a0.99,0.99,0,0,0-.721.292,0.957,0.957,0,0,0-.3.708v1.667h-1.7V462h11.536V448.666h-1.7V447Zm-6.785.333h5.428v1.334h-5.428v-1.334Zm6.785,9a0.318,0.318,0,0,1-.1.239,0.332,0.332,0,0,1-.244.094h-2.375V459a0.322,0.322,0,0,1-.1.239,0.332,0.332,0,0,1-.244.094h-2.036a0.332,0.332,0,0,1-.244-0.094,0.322,0.322,0,0,1-.1-0.239v-2.334h-2.375a0.332,0.332,0,0,1-.244-0.094,0.318,0.318,0,0,1-.1-0.239v-2a0.318,0.318,0,0,1,.1-0.239,0.332,0.332,0,0,1,.244-0.094h2.375v-2.334a0.322,0.322,0,0,1,.1-0.239,0.332,0.332,0,0,1,.244-0.094h2.036a0.332,0.332,0,0,1,.244.094,0.322,0.322,0,0,1,.1.239V454h2.375a0.332,0.332,0,0,1,.244.094,0.322,0.322,0,0,1,.1.239v2h0Zm4.729-6.98a2.3,2.3,0,0,0-1.675-.688h-0.339V462h0.339a2.3,2.3,0,0,0,1.675-.688,2.224,2.224,0,0,0,.7-1.646V451A2.224,2.224,0,0,0,275.3,449.354Z" transform="translate(-257 -446)"/>
</svg>
