<svg xmlns="http://www.w3.org/2000/svg" width="30" height="30" viewBox="0 0 30 30">
  <circle style="fill: #1c304e;" cx="15" cy="15" r="15"/>
  <path style="fill: #fff; fill-rule: evenodd;" d="M1761.22,1003.5h-0.26v-2a1.936,1.936,0,0,0-.53-1.33l-2.34-2.5a0.984,0.984,0,0,1,0-1.333l2.34-2.5a1.945,1.945,0,0,0,.53-1.332v-2h0.26a0.751,0.751,0,1,0,0-1.5h-10.44a0.751,0.751,0,1,0,0,1.5h0.26v2a1.949,1.949,0,0,0,.53,1.333l2.34,2.5a0.983,0.983,0,0,1,0,1.332l-2.34,2.5a1.936,1.936,0,0,0-.53,1.33v2h-0.26a0.751,0.751,0,1,0,0,1.5h10.44A0.751,0.751,0,1,0,1761.22,1003.5Zm-1.83,0h-6.78v-2a0.461,0.461,0,0,1,.13-0.33l2.34-2.5a2.474,2.474,0,0,0,.66-1.666,2.437,2.437,0,0,0-.67-1.667l-2.33-2.5a0.486,0.486,0,0,1-.13-0.333v-2h6.78v2a0.486,0.486,0,0,1-.13.333l-2.34,2.5a2.47,2.47,0,0,0-.66,1.666,2.437,2.437,0,0,0,.67,1.666l2.33,2.5a0.461,0.461,0,0,1,.13.33v2Z" transform="translate(-1741 -982)"/>
</svg>
